<svg width="2600" height="1200" viewBox="0 0 2600 1200" fill="none" xmlns="http://www.w3.org/2000/svg">
<path d="M0 0V1200H2600V0H0ZM199.5 1180C199.5 1190.77 190.77 1199.5 180 1199.5H20C9.23 1199.5 0.5 1190.77 0.5 1180V1020C0.5 1009.23 9.23 1000.5 20 1000.5H180C190.77 1000.5 199.5 1009.23 199.5 1020V1180ZM199.5 980C199.5 990.77 190.77 999.5 180 999.5H20C9.23 999.5 0.5 990.77 0.5 980V820C0.5 809.23 9.23 800.5 20 800.5H180C190.77 800.5 199.5 809.23 199.5 820V980ZM199.5 780C199.5 790.77 190.77 799.5 180 799.5H20C9.23 799.5 0.5 790.77 0.5 780V620C0.5 609.23 9.23 600.5 20 600.5H180C190.77 600.5 199.5 609.23 199.5 620V780ZM199.5 580C199.5 590.77 190.77 599.5 180 599.5H20C9.23 599.5 0.5 590.77 0.5 580V420C0.5 409.23 9.23 400.5 20 400.5H180C190.77 400.5 199.5 409.23 199.5 420V580ZM199.5 380C199.5 390.77 190.77 399.5 180 399.5H20C9.23 399.5 0.5 390.77 0.5 380V220C0.5 209.23 9.23 200.5 20 200.5H180C190.77 200.5 199.5 209.23 199.5 220V380ZM199.5 180C199.5 190.77 190.77 199.5 180 199.5H20C9.23 199.5 0.5 190.77 0.5 180V20C0.5 9.23 9.23 0.5 20 0.5H180C190.77 0.5 199.5 9.23 199.5 20V180ZM399.5 1180C399.5 1190.77 390.77 1199.5 380 1199.5H220C209.23 1199.5 200.5 1190.77 200.5 1180V1020C200.5 1009.23 209.23 1000.5 220 1000.5H380C390.77 1000.5 399.5 1009.23 399.5 1020V1180ZM399.5 980C399.5 990.77 390.77 999.5 380 999.5H220C209.23 999.5 200.5 990.77 200.5 980V820C200.5 809.23 209.23 800.5 220 800.5H380C390.77 800.5 399.5 809.23 399.5 820V980ZM399.5 780C399.5 790.77 390.77 799.5 380 799.5H220C209.23 799.5 200.5 790.77 200.5 780V620C200.5 609.23 209.23 600.5 220 600.5H380C390.77 600.5 399.5 609.23 399.5 620V780ZM399.5 580C399.5 590.77 390.77 599.5 380 599.5H220C209.23 599.5 200.5 590.77 200.5 580V420C200.5 409.23 209.23 400.5 220 400.5H380C390.77 400.5 399.5 409.23 399.5 420V580ZM399.5 380C399.5 390.77 390.77 399.5 380 399.5H220C209.23 399.5 200.5 390.77 200.5 380V220C200.5 209.23 209.23 200.5 220 200.5H380C390.77 200.5 399.5 209.23 399.5 220V380ZM399.5 180C399.5 190.77 390.77 199.5 380 199.5H220C209.23 199.5 200.5 190.77 200.5 180V20C200.5 9.23 209.23 0.5 220 0.5H380C390.77 0.5 399.5 9.23 399.5 20V180ZM599.5 1180C599.5 1190.77 590.77 1199.5 580 1199.5H420C409.23 1199.5 400.5 1190.77 400.5 1180V1020C400.5 1009.23 409.23 1000.5 420 1000.5H580C590.77 1000.5 599.5 1009.23 599.5 1020V1180ZM599.5 980C599.5 990.77 590.77 999.5 580 999.5H420C409.23 999.5 400.5 990.77 400.5 980V820C400.5 809.23 409.23 800.5 420 800.5H580C590.77 800.5 599.5 809.23 599.5 820V980ZM599.5 780C599.5 790.77 590.77 799.5 580 799.5H420C409.23 799.5 400.5 790.77 400.5 780V620C400.5 609.23 409.23 600.5 420 600.5H580C590.77 600.5 599.5 609.23 599.5 620V780ZM599.5 580C599.5 590.77 590.77 599.5 580 599.5H420C409.23 599.5 400.5 590.77 400.5 580V420C400.5 409.23 409.23 400.5 420 400.5H580C590.77 400.5 599.5 409.23 599.5 420V580ZM599.5 380C599.5 390.77 590.77 399.5 580 399.5H420C409.23 399.5 400.5 390.77 400.5 380V220C400.5 209.23 409.23 200.5 420 200.5H580C590.77 200.5 599.5 209.23 599.5 220V380ZM599.5 180C599.5 190.77 590.77 199.5 580 199.5H420C409.23 199.5 400.5 190.77 400.5 180V20C400.5 9.23 409.23 0.5 420 0.5H580C590.77 0.5 599.5 9.23 599.5 20V180ZM799.5 1180C799.5 1190.77 790.77 1199.5 780 1199.5H620C609.23 1199.5 600.5 1190.77 600.5 1180V1020C600.5 1009.23 609.23 1000.5 620 1000.5H780C790.77 1000.5 799.5 1009.23 799.5 1020V1180ZM799.5 980C799.5 990.77 790.77 999.5 780 999.5H620C609.23 999.5 600.5 990.77 600.5 980V820C600.5 809.23 609.23 800.5 620 800.5H780C790.77 800.5 799.5 809.23 799.5 820V980ZM799.5 780C799.5 790.77 790.77 799.5 780 799.5H620C609.23 799.5 600.5 790.77 600.5 780V620C600.5 609.23 609.23 600.5 620 600.5H780C790.77 600.5 799.5 609.23 799.5 620V780ZM799.5 580C799.5 590.77 790.77 599.5 780 599.5H620C609.23 599.5 600.5 590.77 600.5 580V420C600.5 409.23 609.23 400.5 620 400.5H780C790.77 400.5 799.5 409.23 799.5 420V580ZM799.5 380C799.5 390.77 790.77 399.5 780 399.5H620C609.23 399.5 600.5 390.77 600.5 380V220C600.5 209.23 609.23 200.5 620 200.5H780C790.77 200.5 799.5 209.23 799.5 220V380ZM799.5 180C799.5 190.77 790.77 199.5 780 199.5H620C609.23 199.5 600.5 190.77 600.5 180V20C600.5 9.23 609.23 0.5 620 0.5H780C790.77 0.5 799.5 9.23 799.5 20V180ZM999.5 1180C999.5 1190.77 990.77 1199.5 980 1199.5H820C809.23 1199.5 800.5 1190.77 800.5 1180V1020C800.5 1009.23 809.23 1000.5 820 1000.5H980C990.77 1000.5 999.5 1009.23 999.5 1020V1180ZM999.5 980C999.5 990.77 990.77 999.5 980 999.5H820C809.23 999.5 800.5 990.77 800.5 980V820C800.5 809.23 809.23 800.5 820 800.5H980C990.77 800.5 999.5 809.23 999.5 820V980ZM999.5 780C999.5 790.77 990.77 799.5 980 799.5H820C809.23 799.5 800.5 790.77 800.5 780V620C800.5 609.23 809.23 600.5 820 600.5H980C990.77 600.5 999.5 609.23 999.5 620V780ZM999.5 580C999.5 590.77 990.77 599.5 980 599.5H820C809.23 599.5 800.5 590.77 800.5 580V420C800.5 409.23 809.23 400.5 820 400.5H980C990.77 400.5 999.5 409.23 999.5 420V580ZM999.5 380C999.5 390.77 990.77 399.5 980 399.5H820C809.23 399.5 800.5 390.77 800.5 380V220C800.5 209.23 809.23 200.5 820 200.5H980C990.77 200.5 999.5 209.23 999.5 220V380ZM999.5 180C999.5 190.77 990.77 199.5 980 199.5H820C809.23 199.5 800.5 190.77 800.5 180V20C800.5 9.23 809.23 0.5 820 0.5H980C990.77 0.5 999.5 9.23 999.5 20V180ZM1199.5 1180C1199.5 1190.77 1190.77 1199.5 1180 1199.5H1020C1009.23 1199.5 1000.5 1190.77 1000.5 1180V1020C1000.5 1009.23 1009.23 1000.5 1020 1000.5H1180C1190.77 1000.5 1199.5 1009.23 1199.5 1020V1180ZM1199.5 980C1199.5 990.77 1190.77 999.5 1180 999.5H1020C1009.23 999.5 1000.5 990.77 1000.5 980V820C1000.5 809.23 1009.23 800.5 1020 800.5H1180C1190.77 800.5 1199.5 809.23 1199.5 820V980ZM1199.5 780C1199.5 790.77 1190.77 799.5 1180 799.5H1020C1009.23 799.5 1000.5 790.77 1000.5 780V620C1000.5 609.23 1009.23 600.5 1020 600.5H1180C1190.77 600.5 1199.5 609.23 1199.5 620V780ZM1199.5 580C1199.5 590.77 1190.77 599.5 1180 599.5H1020C1009.23 599.5 1000.5 590.77 1000.5 580V420C1000.5 409.23 1009.23 400.5 1020 400.5H1180C1190.77 400.5 1199.5 409.23 1199.5 420V580ZM1199.5 380C1199.5 390.77 1190.77 399.5 1180 399.5H1020C1009.23 399.5 1000.5 390.77 1000.5 380V220C1000.5 209.23 1009.23 200.5 1020 200.5H1180C1190.77 200.5 1199.5 209.23 1199.5 220V380ZM1199.5 180C1199.5 190.77 1190.77 199.5 1180 199.5H1020C1009.23 199.5 1000.5 190.77 1000.5 180V20C1000.5 9.23 1009.23 0.5 1020 0.5H1180C1190.77 0.5 1199.5 9.23 1199.5 20V180ZM1399.5 1180C1399.5 1190.77 1390.77 1199.5 1380 1199.5H1220C1209.23 1199.5 1200.5 1190.77 1200.5 1180V1020C1200.5 1009.23 1209.23 1000.5 1220 1000.5H1380C1390.77 1000.5 1399.5 1009.23 1399.5 1020V1180ZM1399.5 980C1399.5 990.77 1390.77 999.5 1380 999.5H1220C1209.23 999.5 1200.5 990.77 1200.5 980V820C1200.5 809.23 1209.23 800.5 1220 800.5H1380C1390.77 800.5 1399.5 809.23 1399.5 820V980ZM1399.5 780C1399.5 790.77 1390.77 799.5 1380 799.5H1220C1209.23 799.5 1200.5 790.77 1200.5 780V620C1200.5 609.23 1209.23 600.5 1220 600.5H1380C1390.77 600.5 1399.5 609.23 1399.5 620V780ZM1399.5 580C1399.5 590.77 1390.77 599.5 1380 599.5H1220C1209.23 599.5 1200.5 590.77 1200.5 580V420C1200.5 409.23 1209.23 400.5 1220 400.5H1380C1390.77 400.5 1399.5 409.23 1399.5 420V580ZM1399.5 380C1399.5 390.77 1390.77 399.5 1380 399.5H1220C1209.23 399.5 1200.5 390.77 1200.5 380V220C1200.5 209.23 1209.23 200.5 1220 200.5H1380C1390.77 200.5 1399.5 209.23 1399.5 220V380ZM1399.5 180C1399.5 190.77 1390.77 199.5 1380 199.5H1220C1209.23 199.5 1200.5 190.77 1200.5 180V20C1200.5 9.23 1209.23 0.5 1220 0.5H1380C1390.77 0.5 1399.5 9.23 1399.5 20V180ZM1599.5 1180C1599.5 1190.77 1590.77 1199.5 1580 1199.5H1420C1409.23 1199.5 1400.5 1190.77 1400.5 1180V1020C1400.5 1009.23 1409.23 1000.5 1420 1000.5H1580C1590.77 1000.5 1599.5 1009.23 1599.5 1020V1180ZM1599.5 980C1599.5 990.77 1590.77 999.5 1580 999.5H1420C1409.23 999.5 1400.5 990.77 1400.5 980V820C1400.5 809.23 1409.23 800.5 1420 800.5H1580C1590.77 800.5 1599.5 809.23 1599.5 820V980ZM1599.5 780C1599.5 790.77 1590.77 799.5 1580 799.5H1420C1409.23 799.5 1400.5 790.77 1400.5 780V620C1400.5 609.23 1409.23 600.5 1420 600.5H1580C1590.77 600.5 1599.5 609.23 1599.5 620V780ZM1599.5 580C1599.5 590.77 1590.77 599.5 1580 599.5H1420C1409.23 599.5 1400.5 590.77 1400.5 580V420C1400.5 409.23 1409.23 400.5 1420 400.5H1580C1590.77 400.5 1599.5 409.23 1599.5 420V580ZM1599.5 380C1599.5 390.77 1590.77 399.5 1580 399.5H1420C1409.23 399.5 1400.5 390.77 1400.5 380V220C1400.5 209.23 1409.23 200.5 1420 200.5H1580C1590.77 200.5 1599.5 209.23 1599.5 220V380ZM1599.5 180C1599.5 190.77 1590.77 199.5 1580 199.5H1420C1409.23 199.5 1400.5 190.77 1400.5 180V20C1400.5 9.23 1409.23 0.5 1420 0.5H1580C1590.77 0.5 1599.5 9.23 1599.5 20V180ZM1799.5 1180C1799.5 1190.77 1790.77 1199.5 1780 1199.5H1620C1609.23 1199.5 1600.5 1190.77 1600.5 1180V1020C1600.5 1009.23 1609.23 1000.5 1620 1000.5H1780C1790.77 1000.5 1799.5 1009.23 1799.5 1020V1180ZM1799.5 980C1799.5 990.77 1790.77 999.5 1780 999.5H1620C1609.23 999.5 1600.5 990.77 1600.5 980V820C1600.5 809.23 1609.23 800.5 1620 800.5H1780C1790.77 800.5 1799.5 809.23 1799.5 820V980ZM1799.5 780C1799.5 790.77 1790.77 799.5 1780 799.5H1620C1609.23 799.5 1600.5 790.77 1600.5 780V620C1600.5 609.23 1609.23 600.5 1620 600.5H1780C1790.77 600.5 1799.5 609.23 1799.5 620V780ZM1799.5 580C1799.5 590.77 1790.77 599.5 1780 599.5H1620C1609.23 599.5 1600.5 590.77 1600.5 580V420C1600.5 409.23 1609.23 400.5 1620 400.5H1780C1790.77 400.5 1799.5 409.23 1799.5 420V580ZM1799.5 380C1799.5 390.77 1790.77 399.5 1780 399.5H1620C1609.23 399.5 1600.5 390.77 1600.5 380V220C1600.5 209.23 1609.23 200.5 1620 200.5H1780C1790.77 200.5 1799.5 209.23 1799.5 220V380ZM1799.5 180C1799.5 190.77 1790.77 199.5 1780 199.5H1620C1609.23 199.5 1600.5 190.77 1600.5 180V20C1600.5 9.23 1609.23 0.5 1620 0.5H1780C1790.77 0.5 1799.5 9.23 1799.5 20V180ZM1999.5 1180C1999.5 1190.77 1990.77 1199.5 1980 1199.5H1820C1809.23 1199.5 1800.5 1190.77 1800.5 1180V1020C1800.5 1009.23 1809.23 1000.5 1820 1000.5H1980C1990.77 1000.5 1999.5 1009.23 1999.5 1020V1180ZM1999.5 980C1999.5 990.77 1990.77 999.5 1980 999.5H1820C1809.23 999.5 1800.5 990.77 1800.5 980V820C1800.5 809.23 1809.23 800.5 1820 800.5H1980C1990.77 800.5 1999.5 809.23 1999.5 820V980ZM1999.5 780C1999.5 790.77 1990.77 799.5 1980 799.5H1820C1809.23 799.5 1800.5 790.77 1800.5 780V620C1800.5 609.23 1809.23 600.5 1820 600.5H1980C1990.77 600.5 1999.5 609.23 1999.5 620V780ZM1999.5 580C1999.5 590.77 1990.77 599.5 1980 599.5H1820C1809.23 599.5 1800.5 590.77 1800.5 580V420C1800.5 409.23 1809.23 400.5 1820 400.5H1980C1990.77 400.5 1999.5 409.23 1999.5 420V580ZM1999.5 380C1999.5 390.77 1990.77 399.5 1980 399.5H1820C1809.23 399.5 1800.5 390.77 1800.5 380V220C1800.5 209.23 1809.23 200.5 1820 200.5H1980C1990.77 200.5 1999.5 209.23 1999.5 220V380ZM1999.5 180C1999.5 190.77 1990.77 199.5 1980 199.5H1820C1809.23 199.5 1800.5 190.77 1800.5 180V20C1800.5 9.23 1809.23 0.5 1820 0.5H1980C1990.77 0.5 1999.5 9.23 1999.5 20V180ZM2199.5 1180C2199.5 1190.77 2190.77 1199.5 2180 1199.5H2020C2009.23 1199.5 2000.5 1190.77 2000.5 1180V1020C2000.5 1009.23 2009.23 1000.5 2020 1000.5H2180C2190.77 1000.5 2199.5 1009.23 2199.5 1020V1180ZM2199.5 980C2199.5 990.77 2190.77 999.5 2180 999.5H2020C2009.23 999.5 2000.5 990.77 2000.5 980V820C2000.5 809.23 2009.23 800.5 2020 800.5H2180C2190.77 800.5 2199.5 809.23 2199.5 820V980ZM2199.5 780C2199.5 790.77 2190.77 799.5 2180 799.5H2020C2009.23 799.5 2000.5 790.77 2000.5 780V620C2000.5 609.23 2009.23 600.5 2020 600.5H2180C2190.77 600.5 2199.5 609.23 2199.5 620V780ZM2199.5 580C2199.5 590.77 2190.77 599.5 2180 599.5H2020C2009.23 599.5 2000.5 590.77 2000.5 580V420C2000.5 409.23 2009.23 400.5 2020 400.5H2180C2190.77 400.5 2199.5 409.23 2199.5 420V580ZM2199.5 380C2199.5 390.77 2190.77 399.5 2180 399.5H2020C2009.23 399.5 2000.5 390.77 2000.5 380V220C2000.5 209.23 2009.23 200.5 2020 200.5H2180C2190.77 200.5 2199.5 209.23 2199.5 220V380ZM2199.5 180C2199.5 190.77 2190.77 199.5 2180 199.5H2020C2009.23 199.5 2000.5 190.77 2000.5 180V20C2000.5 9.23 2009.23 0.5 2020 0.5H2180C2190.77 0.5 2199.5 9.23 2199.5 20V180ZM2399.5 1180C2399.5 1190.77 2390.77 1199.5 2380 1199.5H2220C2209.23 1199.5 2200.5 1190.77 2200.5 1180V1020C2200.5 1009.23 2209.23 1000.5 2220 1000.5H2380C2390.77 1000.5 2399.5 1009.23 2399.5 1020V1180ZM2399.5 980C2399.5 990.77 2390.77 999.5 2380 999.5H2220C2209.23 999.5 2200.5 990.77 2200.5 980V820C2200.5 809.23 2209.23 800.5 2220 800.5H2380C2390.77 800.5 2399.5 809.23 2399.5 820V980ZM2399.5 780C2399.5 790.77 2390.77 799.5 2380 799.5H2220C2209.23 799.5 2200.5 790.77 2200.5 780V620C2200.5 609.23 2209.23 600.5 2220 600.5H2380C2390.77 600.5 2399.5 609.23 2399.5 620V780ZM2399.5 580C2399.5 590.77 2390.77 599.5 2380 599.5H2220C2209.23 599.5 2200.5 590.77 2200.5 580V420C2200.5 409.23 2209.23 400.5 2220 400.5H2380C2390.77 400.5 2399.5 409.23 2399.5 420V580ZM2399.5 380C2399.5 390.77 2390.77 399.5 2380 399.5H2220C2209.23 399.5 2200.5 390.77 2200.5 380V220C2200.5 209.23 2209.23 200.5 2220 200.5H2380C2390.77 200.5 2399.5 209.23 2399.5 220V380ZM2399.5 180C2399.5 190.77 2390.77 199.5 2380 199.5H2220C2209.23 199.5 2200.5 190.77 2200.5 180V20C2200.5 9.23 2209.23 0.5 2220 0.5H2380C2390.77 0.5 2399.5 9.23 2399.5 20V180ZM2599.5 1180C2599.5 1190.77 2590.77 1199.5 2580 1199.5H2420C2409.23 1199.5 2400.5 1190.77 2400.5 1180V1020C2400.5 1009.23 2409.23 1000.5 2420 1000.5H2580C2590.77 1000.5 2599.5 1009.23 2599.5 1020V1180ZM2599.5 980C2599.5 990.77 2590.77 999.5 2580 999.5H2420C2409.23 999.5 2400.5 990.77 2400.5 980V820C2400.5 809.23 2409.23 800.5 2420 800.5H2580C2590.77 800.5 2599.5 809.23 2599.5 820V980ZM2599.5 780C2599.5 790.77 2590.77 799.5 2580 799.5H2420C2409.23 799.5 2400.5 790.77 2400.5 780V620C2400.5 609.23 2409.23 600.5 2420 600.5H2580C2590.77 600.5 2599.5 609.23 2599.5 620V780ZM2599.5 580C2599.5 590.77 2590.77 599.5 2580 599.5H2420C2409.23 599.5 2400.5 590.77 2400.5 580V420C2400.5 409.23 2409.23 400.5 2420 400.5H2580C2590.77 400.5 2599.5 409.23 2599.5 420V580ZM2599.5 380C2599.5 390.77 2590.77 399.5 2580 399.5H2420C2409.23 399.5 2400.5 390.77 2400.5 380V220C2400.5 209.23 2409.23 200.5 2420 200.5H2580C2590.77 200.5 2599.5 209.23 2599.5 220V380ZM2599.5 180C2599.5 190.77 2590.77 199.5 2580 199.5H2420C2409.23 199.5 2400.5 190.77 2400.5 180V20C2400.5 9.23 2409.23 0.5 2420 0.5H2580C2590.77 0.5 2599.5 9.23 2599.5 20V180Z" fill="url(#paint0_linear_4521_5737)" fill-opacity="0.2"/>
<defs>
<linearGradient id="paint0_linear_4521_5737" x1="1300" y1="0" x2="1300" y2="1200" gradientUnits="userSpaceOnUse">
<stop stop-color="#6C6C6C"/>
<stop offset="1"/>
</linearGradient>
</defs>
</svg>
