<svg width="170" height="34" viewBox="0 0 170 34" fill="none" xmlns="http://www.w3.org/2000/svg">
<g clip-path="url(#clip0_3248_8188)">
<path d="M63.8013 2.70508V5.25103H57.5421V16.9465H54.8139V5.25103H48.5547V2.70508H63.7942H63.8013Z" fill="white"/>
<path d="M65.9844 16.925V2.68359H68.7126V16.925H65.9844Z" fill="white"/>
<path d="M85.6164 16.9258H82.5614L81.1688 14.3798L77.8297 8.27352L74.4905 14.3798L73.098 16.9258H70.043L71.4355 14.3798L77.8297 2.67773L84.2167 14.3798L85.6092 16.9258H85.6164Z" fill="white"/>
<path d="M102.182 2.68359V16.925H99.4538V7.85505L96.7753 9.77115L94.5516 11.3823L92.3278 9.77115L89.6422 7.85505V16.9316H86.9141V2.68359L89.6422 4.63947L94.5516 8.16004L99.4538 4.63947L102.182 2.68359Z" fill="white"/>
<path d="M119.065 9.8043C119.065 13.7293 115.641 16.925 111.435 16.925C107.229 16.925 103.805 13.7293 103.805 9.8043C103.805 5.87929 107.229 2.68359 111.435 2.68359C115.641 2.68359 119.065 5.87929 119.065 9.8043ZM116.337 9.8043C116.337 7.27824 114.135 5.22291 111.435 5.22291C108.735 5.22291 106.526 7.27824 106.526 9.8043C106.526 12.3304 108.728 14.3857 111.435 14.3857C114.142 14.3857 116.337 12.3304 116.337 9.8043Z" fill="white"/>
<path d="M135.963 2.70348V16.9449L133.235 14.989L123.423 7.92798V16.9449H120.695V2.74326L123.423 4.69914L133.235 11.7602V2.68359L135.963 2.70348Z" fill="white"/>
<path d="M145.744 2.70348C149.95 2.70348 153.374 5.87929 153.374 9.8043C153.374 11.5546 152.699 13.1591 151.563 14.4056C151.428 14.5448 151.278 14.6907 151.129 14.8299C149.758 16.1294 147.861 16.925 145.765 16.925H138.135V2.68359L145.744 2.70348ZM140.835 14.4056H145.744C148.451 14.4056 150.653 12.3502 150.653 9.82419C150.653 7.29813 148.451 5.2428 145.744 5.2428H140.835V14.3989V14.4056Z" fill="white"/>
<path d="M167.279 6.62849V6.54893C167.279 5.83951 166.647 5.24943 165.886 5.24943H159.691C158.931 5.24943 158.299 5.83951 158.299 6.54893V6.62849C158.299 7.33791 158.931 7.92798 159.691 7.92798H165.183C166.604 7.92798 167.869 8.49817 168.735 9.39323C168.799 9.4529 168.842 9.5192 168.913 9.57887C169.588 10.3546 170 11.3491 170 12.4298C170 14.9161 167.84 16.925 165.183 16.925H160.409C157.745 16.925 155.592 14.9095 155.592 12.4298H158.32C158.32 13.5105 159.258 14.3857 160.416 14.3857H165.19C166.348 14.3857 167.307 13.5105 167.307 12.4298C167.307 11.3491 166.348 10.4739 165.19 10.4739H159.698C158.583 10.4739 157.581 10.0695 156.842 9.39323C156.643 9.20759 156.473 9.00869 156.316 8.78326C155.862 8.1733 155.599 7.41747 155.599 6.6086V6.52904C155.599 4.41404 157.432 2.68359 159.698 2.68359H165.894C168.16 2.68359 170.014 4.41404 170.014 6.52904V6.6086L167.286 6.62849H167.279Z" fill="white"/>
<path d="M55.3494 24.0723V25.206H52.5644V30.4172H51.3495V25.206H48.5645V24.0723H55.3494Z" fill="white"/>
<path d="M62.2452 27.2336C62.2452 28.984 60.7177 30.4028 58.8491 30.4028C56.9806 30.4028 55.4531 28.9773 55.4531 27.2336C55.4531 25.4899 56.9806 24.0645 58.8491 24.0645C60.7177 24.0645 62.2452 25.4899 62.2452 27.2336ZM61.0303 27.2336C61.0303 26.1131 60.0498 25.1916 58.8491 25.1916C57.6485 25.1916 56.668 26.1065 56.668 27.2336C56.668 28.3607 57.6485 29.2691 58.8491 29.2691C60.0498 29.2691 61.0303 28.3541 61.0303 27.2336Z" fill="white"/>
<path d="M66.7896 26.6104L69.731 30.4094H68.239L65.8873 27.3861L64.168 28.8447V30.4094H62.9531V24.0645H64.168V27.3066L65.1698 26.4579L66.0721 25.6888L67.969 24.0645H69.7665L66.7967 26.6104H66.7896Z" fill="white"/>
<path d="M71.3621 25.775V26.3651H75.7314V27.4988H71.3621V28.6922C71.3621 29.0105 71.6392 29.2691 71.9802 29.2691H76.9392V30.4028H71.9802C70.9713 30.4028 70.1543 29.6337 70.1543 28.6922V25.775C70.1543 24.8335 70.9713 24.0645 71.9802 24.0645H76.9392V25.1982H71.9802C71.6392 25.1982 71.3621 25.4634 71.3621 25.775Z" fill="white"/>
<path d="M84.7113 24.0719V30.4168L83.4964 29.5483L79.127 26.4056V30.4168H77.9121V24.0917L79.127 24.9603L83.4964 28.1029V24.0586H84.7113V24.0719Z" fill="white"/>
<path d="M85.6895 30.4036V24.0586H86.9043V30.4036H85.6895Z" fill="white"/>
<path d="M94.6903 29.2624V30.3962H89.4258L87.8912 30.4028H87.8983L88.829 29.2624L90.4986 27.2403L91.2659 26.3187L92.1966 25.1982H87.877V24.0645H94.6548L93.7099 25.1982L92.019 27.2469L91.2517 28.1685L90.3352 29.2624H94.6761H94.6903Z" fill="white"/>
<path d="M96.8523 25.775V26.3651H101.222V27.4988H96.8523V28.6922C96.8523 29.0105 97.1294 29.2691 97.4704 29.2691H102.429V30.4028H97.4704C96.4616 30.4028 95.6445 29.6337 95.6445 28.6922V25.775C95.6445 24.8335 96.4616 24.0645 97.4704 24.0645H102.429V25.1982H97.4704C97.1294 25.1982 96.8523 25.4634 96.8523 25.775Z" fill="white"/>
<path d="M106.794 24.0711C108.67 24.0711 110.19 25.4833 110.19 27.2336C110.19 28.0094 109.892 28.7254 109.387 29.2823C109.33 29.3486 109.259 29.4083 109.195 29.4746C108.584 30.0514 107.739 30.4094 106.808 30.4094H103.412V24.0645H106.801L106.794 24.0711ZM104.613 29.289H106.794C107.995 29.289 108.975 28.374 108.975 27.2535C108.975 26.133 107.995 25.2181 106.794 25.2181H104.613V29.2956V29.289Z" fill="white"/>
<path d="M119.288 24.0711C121.164 24.0711 122.684 25.4833 122.684 27.2336C122.684 28.0094 122.386 28.7254 121.881 29.2823C121.824 29.3486 121.753 29.4083 121.689 29.4746C121.078 30.0514 120.233 30.4094 119.302 30.4094H115.906V24.0645H119.295L119.288 24.0711ZM117.107 29.289H119.288C120.489 29.289 121.469 28.374 121.469 27.2535C121.469 26.133 120.489 25.2181 119.288 25.2181H117.107V29.2956V29.289Z" fill="white"/>
<path d="M123.674 30.4036V24.0586H124.889V30.4036H123.674Z" fill="white"/>
<path d="M132.406 30.4036H131.049L130.431 29.2698L128.946 26.5515L127.461 29.2698L126.843 30.4036H125.486L126.104 29.2698L128.953 24.0586L131.795 29.2698L132.413 30.4036H132.406Z" fill="white"/>
<path d="M139.79 24.0586V30.4036H138.575V26.3659L137.382 27.2145L136.394 27.9306L135.407 27.2145L134.213 26.3659V30.4036H132.998V24.0586L134.213 24.9271L136.394 26.4918L138.575 24.9271L139.79 24.0586Z" fill="white"/>
<path d="M147.31 27.2336C147.31 28.984 145.782 30.4028 143.914 30.4028C142.045 30.4028 140.518 28.9773 140.518 27.2336C140.518 25.4899 142.038 24.0645 143.914 24.0645C145.789 24.0645 147.31 25.4899 147.31 27.2336ZM146.095 27.2336C146.095 26.1131 145.114 25.1916 143.914 25.1916C142.713 25.1916 141.732 26.1065 141.732 27.2336C141.732 28.3607 142.713 29.2691 143.914 29.2691C145.114 29.2691 146.095 28.3541 146.095 27.2336Z" fill="white"/>
<path d="M154.846 24.0719V30.4168L153.631 29.5483L149.262 26.4056V30.4168H148.047V24.0917L149.262 24.9603L153.631 28.1029V24.0586H154.846V24.0719Z" fill="white"/>
<path d="M159.196 24.0711C161.072 24.0711 162.592 25.4833 162.592 27.2336C162.592 28.0094 162.294 28.7254 161.789 29.2823C161.733 29.3486 161.662 29.4083 161.598 29.4746C160.987 30.0514 160.141 30.4094 159.21 30.4094H155.814V24.0645H159.203L159.196 24.0711ZM157.015 29.289H159.196C160.397 29.289 161.377 28.374 161.377 27.2535C161.377 26.133 160.397 25.2181 159.196 25.2181H157.015V29.2956V29.289Z" fill="white"/>
<path d="M168.79 25.8222V25.789C168.79 25.4708 168.513 25.2122 168.172 25.2122H165.416C165.075 25.2122 164.798 25.4774 164.798 25.789V25.8222C164.798 26.1404 165.082 26.399 165.416 26.399H167.86C168.492 26.399 169.053 26.651 169.444 27.0488C169.472 27.0753 169.494 27.1018 169.522 27.1283C169.821 27.4731 170.005 27.9173 170.005 28.3947C170.005 29.5019 169.046 30.3969 167.86 30.3969H165.735C164.549 30.3969 163.59 29.5019 163.59 28.3947H164.805C164.805 28.872 165.224 29.2632 165.735 29.2632H167.86C168.378 29.2632 168.805 28.872 168.805 28.3947C168.805 27.9173 168.378 27.5261 167.86 27.5261H165.416C164.918 27.5261 164.471 27.3471 164.144 27.0488C164.059 26.9692 163.981 26.8764 163.91 26.7769C163.704 26.5051 163.59 26.167 163.59 25.8089V25.7692C163.59 24.8277 164.407 24.0586 165.416 24.0586H168.172C169.181 24.0586 170.005 24.8277 170.005 25.7692V25.8089H168.79V25.8222Z" fill="white"/>
<path d="M40.6795 10.6148L32.3174 0.437585C32.09 0.165752 31.7419 0 31.3724 0H9.19883C8.82228 0 8.45995 0.165752 8.2397 0.457475L0.239869 10.6346C-0.0869446 11.0523 -0.0656306 11.6292 0.303811 12.0203L19.5716 32.7128C19.799 32.9581 20.1258 33.0973 20.4739 33.0973C20.822 33.0973 21.1488 32.9581 21.3762 32.7128L40.644 12.0203C41.0134 11.6225 41.0348 11.0324 40.6937 10.6148H40.6795ZM9.80272 2.22771H30.7827L37.3119 10.1772H28.1824C27.6638 10.1772 27.202 10.4888 27.0457 10.9529L20.4597 30.1403L13.8737 10.9529C13.7174 10.4888 13.2556 10.1772 12.7369 10.1772H3.55063L9.80272 2.22771ZM37.1201 12.4049L24.353 26.1159L29.0563 12.4049H37.1201ZM16.5806 26.1159L3.81351 12.4049H11.8773L16.5806 26.1159Z" fill="white"/>
</g>
<defs>
<clipPath id="clip0_3248_8188">
<rect width="170" height="33.0973" fill="white"/>
</clipPath>
</defs>
</svg>
