<svg width="30" height="30" viewBox="0 0 30 30" fill="none" xmlns="http://www.w3.org/2000/svg">
<g clip-path="url(#clip0_3248_6888)">
<path fill-rule="evenodd" clip-rule="evenodd" d="M19.8243 18.7344C14.3409 18.7344 9.91213 14.288 9.91213 8.82227C9.91213 14.288 5.46573 18.7344 0 18.7344C5.46573 18.7344 9.91213 23.1632 9.91213 28.6289C9.91213 23.1632 14.3409 18.7344 19.8243 18.7344Z" fill="white"/>
<path fill-rule="evenodd" clip-rule="evenodd" d="M30.0018 23.8485C26.9965 23.8485 24.5712 21.4057 24.5712 18.418C24.5712 21.4057 22.1283 23.8485 19.1406 23.8485C22.1283 23.8485 24.5712 26.2739 24.5712 29.2791C24.5712 26.2739 26.9965 23.8485 30.0018 23.8485Z" fill="white"/>
<path fill-rule="evenodd" clip-rule="evenodd" d="M26.8724 7.32879C23.2169 7.32879 20.2643 4.37624 20.2643 0.720703C20.2643 4.37624 17.3118 7.32879 13.6562 7.32879C17.3118 7.32879 20.2643 10.2813 20.2643 13.9369C20.2643 10.2813 23.2169 7.32879 26.8724 7.32879Z" fill="white"/>
</g>
<defs>
<clipPath id="clip0_3248_6888">
<rect width="30" height="30" fill="white"/>
</clipPath>
</defs>
</svg>
